# xmcd
#
# Track frame offsets:
#	150
#	16357
#	39387
#	49096
#	64589
#	81275
#	96947
#	112191
#	126273
#	146747
#	162754
#	177712
#	194191
#	214732
#	231766
#
# Disc length: 3294 seconds
#
# Revision: 1
# Processed by: cddbd v1.5.2PL0 Copyright (c) Steve Scherf et al.
# Submitted via: audiograbber 1.83.01
#
DISCID=e00cdc0f
DTITLE=Chantal Cliche - Une raison de croire
DYEAR=2005
DGENRE=Country
TTITLE0=Paul Daraiche - Partir n'importe où
TTITLE1=Paul Daraiche - Il n'y a jamais eu que toi
TTITLE2=J.Carnes-R.Carnes - W. Hardy - Pins and needles
TTITLE3=(D.Amodeo-C.Cliche - Raconte-moi
TTITLE4=Chantal Cliche - Un point c'est tout
TTITLE5=Kate Morrison - I'm on my way
TTITLE6=Paul Daraiche - Chanter le jour, la nuit
TTITLE7=Kate Morrison - The laundry blues
TTITLE8=Paul Daraiche - Reste avec moi
TTITLE9=D.Goupil - One of these days
TTITLE10=C. Cliche - Par amour ou par hasard
TTITLE11=R.Dipiero - P.McManus - Sentimental ol' you
TTITLE12=Kate Morrison - Une raison de croire
TTITLE13=J.McDiarmid - That's country
TTITLE14=J.Rushing- C.Cliche - Je ne dirai jamais assez
EXTD=
EXTT0=
EXTT1=
EXTT2=
EXTT3=
EXTT4=
EXTT5=
EXTT6=
EXTT7=
EXTT8=
EXTT9=
EXTT10=
EXTT11=
EXTT12=
EXTT13=
EXTT14=
PLAYORDER=
